<mxfile host="Electron" agent="Mozilla/5.0 (Windows NT 10.0; Win64; x64) AppleWebKit/537.36 (KHTML, like Gecko) draw.io/26.0.9 Chrome/128.0.6613.186 Electron/32.2.5 Safari/537.36" version="26.0.9">
  <diagram name="Страница — 1" id="LFMK5lF8i2AvCl-elNXO">
    <mxGraphModel dx="1728" dy="1003" grid="1" gridSize="10" guides="1" tooltips="1" connect="1" arrows="1" fold="1" page="1" pageScale="1" pageWidth="827" pageHeight="1169" math="0" shadow="0">
      <root>
        <mxCell id="0" />
        <mxCell id="1" parent="0" />
        <mxCell id="0upJ6LvEVWyLVLnyJaRO-1" value="OS" style="swimlane;fontStyle=0;childLayout=stackLayout;horizontal=1;startSize=26;fillColor=none;horizontalStack=0;resizeParent=1;resizeParentMax=0;resizeLast=0;collapsible=1;marginBottom=0;whiteSpace=wrap;html=1;" parent="1" vertex="1">
          <mxGeometry x="470" y="330" width="140" height="52" as="geometry" />
        </mxCell>
        <mxCell id="0upJ6LvEVWyLVLnyJaRO-2" value="- form: Form" style="text;strokeColor=none;fillColor=none;align=left;verticalAlign=top;spacingLeft=4;spacingRight=4;overflow=hidden;rotatable=0;points=[[0,0.5],[1,0.5]];portConstraint=eastwest;whiteSpace=wrap;html=1;" parent="0upJ6LvEVWyLVLnyJaRO-1" vertex="1">
          <mxGeometry y="26" width="140" height="26" as="geometry" />
        </mxCell>
        <mxCell id="0upJ6LvEVWyLVLnyJaRO-5" value="SaaS" style="swimlane;fontStyle=0;childLayout=stackLayout;horizontal=1;startSize=26;fillColor=none;horizontalStack=0;resizeParent=1;resizeParentMax=0;resizeLast=0;collapsible=1;marginBottom=0;whiteSpace=wrap;html=1;" parent="1" vertex="1">
          <mxGeometry x="720" y="190" width="140" height="52" as="geometry" />
        </mxCell>
        <mxCell id="0upJ6LvEVWyLVLnyJaRO-6" value="- property: str" style="text;strokeColor=none;fillColor=none;align=left;verticalAlign=top;spacingLeft=4;spacingRight=4;overflow=hidden;rotatable=0;points=[[0,0.5],[1,0.5]];portConstraint=eastwest;whiteSpace=wrap;html=1;" parent="0upJ6LvEVWyLVLnyJaRO-5" vertex="1">
          <mxGeometry y="26" width="140" height="26" as="geometry" />
        </mxCell>
        <mxCell id="0upJ6LvEVWyLVLnyJaRO-17" value="Antivirus" style="swimlane;fontStyle=0;childLayout=stackLayout;horizontal=1;startSize=26;fillColor=none;horizontalStack=0;resizeParent=1;resizeParentMax=0;resizeLast=0;collapsible=1;marginBottom=0;whiteSpace=wrap;html=1;" parent="1" vertex="1">
          <mxGeometry x="360" y="820" width="140" height="52" as="geometry" />
        </mxCell>
        <mxCell id="0upJ6LvEVWyLVLnyJaRO-18" value="- form: Form" style="text;strokeColor=none;fillColor=none;align=left;verticalAlign=top;spacingLeft=4;spacingRight=4;overflow=hidden;rotatable=0;points=[[0,0.5],[1,0.5]];portConstraint=eastwest;whiteSpace=wrap;html=1;" parent="0upJ6LvEVWyLVLnyJaRO-17" vertex="1">
          <mxGeometry y="26" width="140" height="26" as="geometry" />
        </mxCell>
        <mxCell id="0upJ6LvEVWyLVLnyJaRO-21" value="Command_line" style="swimlane;fontStyle=0;childLayout=stackLayout;horizontal=1;startSize=26;fillColor=none;horizontalStack=0;resizeParent=1;resizeParentMax=0;resizeLast=0;collapsible=1;marginBottom=0;whiteSpace=wrap;html=1;" parent="1" vertex="1">
          <mxGeometry x="220" y="330" width="140" height="52" as="geometry" />
        </mxCell>
        <mxCell id="0upJ6LvEVWyLVLnyJaRO-22" value="- form: Form" style="text;strokeColor=none;fillColor=none;align=left;verticalAlign=top;spacingLeft=4;spacingRight=4;overflow=hidden;rotatable=0;points=[[0,0.5],[1,0.5]];portConstraint=eastwest;whiteSpace=wrap;html=1;" parent="0upJ6LvEVWyLVLnyJaRO-21" vertex="1">
          <mxGeometry y="26" width="140" height="26" as="geometry" />
        </mxCell>
        <mxCell id="0upJ6LvEVWyLVLnyJaRO-25" value="Graphic_editor" style="swimlane;fontStyle=0;childLayout=stackLayout;horizontal=1;startSize=26;fillColor=none;horizontalStack=0;resizeParent=1;resizeParentMax=0;resizeLast=0;collapsible=1;marginBottom=0;whiteSpace=wrap;html=1;" parent="1" vertex="1">
          <mxGeometry x="720" y="650" width="140" height="52" as="geometry" />
        </mxCell>
        <mxCell id="0upJ6LvEVWyLVLnyJaRO-26" value="- form: Form" style="text;strokeColor=none;fillColor=none;align=left;verticalAlign=top;spacingLeft=4;spacingRight=4;overflow=hidden;rotatable=0;points=[[0,0.5],[1,0.5]];portConstraint=eastwest;whiteSpace=wrap;html=1;" parent="0upJ6LvEVWyLVLnyJaRO-25" vertex="1">
          <mxGeometry y="26" width="140" height="26" as="geometry" />
        </mxCell>
        <mxCell id="0upJ6LvEVWyLVLnyJaRO-29" value="Gaming_platform" style="swimlane;fontStyle=0;childLayout=stackLayout;horizontal=1;startSize=26;fillColor=none;horizontalStack=0;resizeParent=1;resizeParentMax=0;resizeLast=0;collapsible=1;marginBottom=0;whiteSpace=wrap;html=1;" parent="1" vertex="1">
          <mxGeometry x="580" y="820" width="140" height="52" as="geometry" />
        </mxCell>
        <mxCell id="0upJ6LvEVWyLVLnyJaRO-30" value="- form: Form" style="text;strokeColor=none;fillColor=none;align=left;verticalAlign=top;spacingLeft=4;spacingRight=4;overflow=hidden;rotatable=0;points=[[0,0.5],[1,0.5]];portConstraint=eastwest;whiteSpace=wrap;html=1;" parent="0upJ6LvEVWyLVLnyJaRO-29" vertex="1">
          <mxGeometry y="26" width="140" height="26" as="geometry" />
        </mxCell>
        <mxCell id="0upJ6LvEVWyLVLnyJaRO-33" value="Web_app" style="swimlane;fontStyle=0;childLayout=stackLayout;horizontal=1;startSize=26;fillColor=none;horizontalStack=0;resizeParent=1;resizeParentMax=0;resizeLast=0;collapsible=1;marginBottom=0;whiteSpace=wrap;html=1;" parent="1" vertex="1">
          <mxGeometry x="220" y="650" width="140" height="52" as="geometry" />
        </mxCell>
        <mxCell id="0upJ6LvEVWyLVLnyJaRO-34" value="- form: Form" style="text;strokeColor=none;fillColor=none;align=left;verticalAlign=top;spacingLeft=4;spacingRight=4;overflow=hidden;rotatable=0;points=[[0,0.5],[1,0.5]];portConstraint=eastwest;whiteSpace=wrap;html=1;" parent="0upJ6LvEVWyLVLnyJaRO-33" vertex="1">
          <mxGeometry y="26" width="140" height="26" as="geometry" />
        </mxCell>
        <mxCell id="0upJ6LvEVWyLVLnyJaRO-37" value="Console_game" style="swimlane;fontStyle=0;childLayout=stackLayout;horizontal=1;startSize=26;fillColor=none;horizontalStack=0;resizeParent=1;resizeParentMax=0;resizeLast=0;collapsible=1;marginBottom=0;whiteSpace=wrap;html=1;" parent="1" vertex="1">
          <mxGeometry x="40" y="500" width="140" height="52" as="geometry" />
        </mxCell>
        <mxCell id="6XywSQ8PBVXyOiipO_Bx-16" value="- form: Form" style="text;strokeColor=none;fillColor=none;align=left;verticalAlign=top;spacingLeft=4;spacingRight=4;overflow=hidden;rotatable=0;points=[[0,0.5],[1,0.5]];portConstraint=eastwest;whiteSpace=wrap;html=1;" vertex="1" parent="0upJ6LvEVWyLVLnyJaRO-37">
          <mxGeometry y="26" width="140" height="26" as="geometry" />
        </mxCell>
        <mxCell id="0upJ6LvEVWyLVLnyJaRO-53" value="" style="endArrow=none;html=1;rounded=0;entryX=0;entryY=0.91;entryDx=0;entryDy=0;entryPerimeter=0;exitX=1;exitY=0.91;exitDx=0;exitDy=0;exitPerimeter=0;" parent="1" source="0upJ6LvEVWyLVLnyJaRO-34" target="0upJ6LvEVWyLVLnyJaRO-26" edge="1">
          <mxGeometry width="50" height="50" relative="1" as="geometry">
            <mxPoint x="370" y="700" as="sourcePoint" />
            <mxPoint x="690" y="700" as="targetPoint" />
          </mxGeometry>
        </mxCell>
        <mxCell id="0upJ6LvEVWyLVLnyJaRO-54" value="" style="endArrow=none;html=1;rounded=0;exitX=0.571;exitY=0.003;exitDx=0;exitDy=0;exitPerimeter=0;" parent="1" source="0upJ6LvEVWyLVLnyJaRO-17" edge="1">
          <mxGeometry width="50" height="50" relative="1" as="geometry">
            <mxPoint x="440" y="810" as="sourcePoint" />
            <mxPoint x="440" y="700" as="targetPoint" />
          </mxGeometry>
        </mxCell>
        <mxCell id="0upJ6LvEVWyLVLnyJaRO-56" value="" style="endArrow=none;html=1;rounded=0;exitX=0.571;exitY=0;exitDx=0;exitDy=0;exitPerimeter=0;" parent="1" source="0upJ6LvEVWyLVLnyJaRO-29" edge="1">
          <mxGeometry width="50" height="50" relative="1" as="geometry">
            <mxPoint x="661" y="810" as="sourcePoint" />
            <mxPoint x="659.94" y="700" as="targetPoint" />
          </mxGeometry>
        </mxCell>
        <mxCell id="0upJ6LvEVWyLVLnyJaRO-57" value="" style="endArrow=block;endSize=16;endFill=0;html=1;rounded=0;entryX=0.505;entryY=0.987;entryDx=0;entryDy=0;entryPerimeter=0;" parent="1" target="6XywSQ8PBVXyOiipO_Bx-7" edge="1">
          <mxGeometry width="160" relative="1" as="geometry">
            <mxPoint x="540" y="700" as="sourcePoint" />
            <mxPoint x="540.7" y="614.442" as="targetPoint" />
          </mxGeometry>
        </mxCell>
        <mxCell id="0upJ6LvEVWyLVLnyJaRO-59" value="Use" style="endArrow=open;endSize=12;dashed=1;html=1;rounded=0;exitX=0.457;exitY=-0.01;exitDx=0;exitDy=0;exitPerimeter=0;entryX=-0.006;entryY=0.169;entryDx=0;entryDy=0;entryPerimeter=0;" parent="1" target="0upJ6LvEVWyLVLnyJaRO-22" edge="1">
          <mxGeometry width="160" relative="1" as="geometry">
            <mxPoint x="110.00000000000001" y="498.96000000000004" as="sourcePoint" />
            <mxPoint x="110.02" y="390" as="targetPoint" />
            <Array as="points">
              <mxPoint x="110" y="360" />
            </Array>
          </mxGeometry>
        </mxCell>
        <mxCell id="0upJ6LvEVWyLVLnyJaRO-60" value="*" style="endArrow=open;html=1;endSize=12;startArrow=diamondThin;startSize=14;startFill=0;edgeStyle=orthogonalEdgeStyle;align=left;verticalAlign=bottom;rounded=0;exitX=0;exitY=0.121;exitDx=0;exitDy=0;exitPerimeter=0;entryX=1.006;entryY=0.138;entryDx=0;entryDy=0;entryPerimeter=0;" parent="1" target="0upJ6LvEVWyLVLnyJaRO-22" edge="1" source="0upJ6LvEVWyLVLnyJaRO-2">
          <mxGeometry x="-0.6368" relative="1" as="geometry">
            <mxPoint x="470" y="390" as="sourcePoint" />
            <mxPoint x="370" y="360" as="targetPoint" />
            <mxPoint as="offset" />
            <Array as="points">
              <mxPoint x="410" y="359" />
            </Array>
          </mxGeometry>
        </mxCell>
        <mxCell id="0upJ6LvEVWyLVLnyJaRO-61" value="Use" style="endArrow=open;endSize=12;dashed=1;html=1;rounded=0;exitX=0.999;exitY=0.95;exitDx=0;exitDy=0;exitPerimeter=0;entryX=0.5;entryY=1;entryDx=0;entryDy=0;" parent="1" source="6XywSQ8PBVXyOiipO_Bx-5" target="0upJ6LvEVWyLVLnyJaRO-5" edge="1">
          <mxGeometry width="160" relative="1" as="geometry">
            <mxPoint x="609.3000000000002" y="559.6599999999999" as="sourcePoint" />
            <mxPoint x="680" y="250" as="targetPoint" />
            <Array as="points">
              <mxPoint x="790" y="560" />
            </Array>
          </mxGeometry>
        </mxCell>
        <mxCell id="6XywSQ8PBVXyOiipO_Bx-1" value="" style="endArrow=block;endSize=16;endFill=0;html=1;rounded=0;entryX=0.498;entryY=-0.01;entryDx=0;entryDy=0;entryPerimeter=0;exitX=0.495;exitY=1.004;exitDx=0;exitDy=0;exitPerimeter=0;" edge="1" parent="1" source="0upJ6LvEVWyLVLnyJaRO-2" target="6XywSQ8PBVXyOiipO_Bx-4">
          <mxGeometry width="160" relative="1" as="geometry">
            <mxPoint x="539.8600000000001" y="407.9480000000001" as="sourcePoint" />
            <mxPoint x="539.8600000000001" y="509.45399999999995" as="targetPoint" />
          </mxGeometry>
        </mxCell>
        <mxCell id="6XywSQ8PBVXyOiipO_Bx-4" value="&lt;span style=&quot;font-weight: 400;&quot;&gt;AProgramm&lt;/span&gt;" style="swimlane;fontStyle=1;align=center;verticalAlign=top;childLayout=stackLayout;horizontal=1;startSize=26;horizontalStack=0;resizeParent=1;resizeParentMax=0;resizeLast=0;collapsible=1;marginBottom=0;whiteSpace=wrap;html=1;" vertex="1" parent="1">
          <mxGeometry x="470" y="509" width="140" height="112" as="geometry" />
        </mxCell>
        <mxCell id="6XywSQ8PBVXyOiipO_Bx-5" value="- name: str" style="text;strokeColor=none;fillColor=none;align=left;verticalAlign=top;spacingLeft=4;spacingRight=4;overflow=hidden;rotatable=0;points=[[0,0.5],[1,0.5]];portConstraint=eastwest;whiteSpace=wrap;html=1;" vertex="1" parent="6XywSQ8PBVXyOiipO_Bx-4">
          <mxGeometry y="26" width="140" height="26" as="geometry" />
        </mxCell>
        <mxCell id="6XywSQ8PBVXyOiipO_Bx-8" value="- description: str" style="text;strokeColor=none;fillColor=none;align=left;verticalAlign=top;spacingLeft=4;spacingRight=4;overflow=hidden;rotatable=0;points=[[0,0.5],[1,0.5]];portConstraint=eastwest;whiteSpace=wrap;html=1;" vertex="1" parent="6XywSQ8PBVXyOiipO_Bx-4">
          <mxGeometry y="52" width="140" height="26" as="geometry" />
        </mxCell>
        <mxCell id="6XywSQ8PBVXyOiipO_Bx-6" value="" style="line;strokeWidth=1;fillColor=none;align=left;verticalAlign=middle;spacingTop=-1;spacingLeft=3;spacingRight=3;rotatable=0;labelPosition=right;points=[];portConstraint=eastwest;strokeColor=inherit;" vertex="1" parent="6XywSQ8PBVXyOiipO_Bx-4">
          <mxGeometry y="78" width="140" height="8" as="geometry" />
        </mxCell>
        <mxCell id="6XywSQ8PBVXyOiipO_Bx-7" value="+ run(): void" style="text;strokeColor=none;fillColor=none;align=left;verticalAlign=top;spacingLeft=4;spacingRight=4;overflow=hidden;rotatable=0;points=[[0,0.5],[1,0.5]];portConstraint=eastwest;whiteSpace=wrap;html=1;" vertex="1" parent="6XywSQ8PBVXyOiipO_Bx-4">
          <mxGeometry y="86" width="140" height="26" as="geometry" />
        </mxCell>
        <mxCell id="6XywSQ8PBVXyOiipO_Bx-9" value="" style="endArrow=block;endSize=16;endFill=0;html=1;rounded=0;entryX=-0.001;entryY=0.098;entryDx=0;entryDy=0;entryPerimeter=0;exitX=0.999;exitY=0.389;exitDx=0;exitDy=0;exitPerimeter=0;" edge="1" parent="1" source="0upJ6LvEVWyLVLnyJaRO-37" target="6XywSQ8PBVXyOiipO_Bx-4">
          <mxGeometry width="160" relative="1" as="geometry">
            <mxPoint x="190" y="530" as="sourcePoint" />
            <mxPoint x="321" y="525.5" as="targetPoint" />
          </mxGeometry>
        </mxCell>
        <mxCell id="6XywSQ8PBVXyOiipO_Bx-10" value="" style="endArrow=none;html=1;rounded=0;entryX=0.426;entryY=1.062;entryDx=0;entryDy=0;entryPerimeter=0;" edge="1" parent="1" target="0upJ6LvEVWyLVLnyJaRO-22">
          <mxGeometry width="50" height="50" relative="1" as="geometry">
            <mxPoint x="280" y="520" as="sourcePoint" />
            <mxPoint x="280.0600000000002" y="408" as="targetPoint" />
          </mxGeometry>
        </mxCell>
        <mxCell id="6XywSQ8PBVXyOiipO_Bx-11" value="" style="endArrow=block;endSize=16;endFill=0;html=1;rounded=0;entryX=0.998;entryY=0.004;entryDx=0;entryDy=0;entryPerimeter=0;exitX=0.283;exitY=1;exitDx=0;exitDy=0;exitPerimeter=0;" edge="1" parent="1" source="0upJ6LvEVWyLVLnyJaRO-6" target="6XywSQ8PBVXyOiipO_Bx-5">
          <mxGeometry width="160" relative="1" as="geometry">
            <mxPoint x="760" y="270" as="sourcePoint" />
            <mxPoint x="761" y="396" as="targetPoint" />
            <Array as="points">
              <mxPoint x="760" y="535" />
            </Array>
          </mxGeometry>
        </mxCell>
      </root>
    </mxGraphModel>
  </diagram>
</mxfile>
